<?xml version="1.0" encoding="iso-8859-1"?>
<!-- Generator: Adobe Illustrator 19.0.0, SVG Export Plug-In . SVG Version: 6.00 Build 0)  -->
<svg version="1.1" id="Capa_1" xmlns="http://www.w3.org/2000/svg" xmlns:xlink="http://www.w3.org/1999/xlink" x="0px" y="0px"
	 viewBox="0 0 408.975 408.975" style="enable-background:new 0 0 408.975 408.975;" xml:space="preserve">
<path id="XMLID_1165_" d="M177.613,320.917H14V14h232.857v67.059c0,3.866,3.134,7,7,7h67.059v89.554c0,3.866,3.134,7,7,7
	s7-3.134,7-7V81.059c0-0.968-0.196-1.89-0.552-2.728c-0.317-0.752-0.771-1.459-1.363-2.084c-0.002-0.002-0.004-0.004-0.006-0.006
	s-0.004-0.004-0.006-0.006c-0.046-0.048-0.092-0.095-0.139-0.142L258.808,2.05c-0.69-0.689-1.488-1.205-2.34-1.547
	c-0.738-0.297-1.539-0.472-2.377-0.499c-0.001,0-0.003,0-0.004,0c-0.009,0-0.018-0.001-0.026-0.001
	c-0.075-0.002-0.141-0.004-0.228-0.003H7C3.134,0,0,3.134,0,7v320.917c0,3.866,3.134,7,7,7h170.613c3.866,0,7-3.134,7-7
	S181.48,320.917,177.613,320.917z M260.858,23.9l50.159,50.159h-50.159V23.9z M395.612,256.005c-0.206-0.463-0.46-0.9-0.756-1.304
	c-17.823-30.236-50.727-50.57-88.292-50.574c-0.01,0-0.02,0-0.029,0c-37.564,0.004-70.465,20.332-88.288,50.568
	c-0.299,0.407-0.556,0.848-0.762,1.315c-8.482,14.891-13.339,32.098-13.359,50.421c-0.001,0.039-0.001,0.079-0.001,0.118
	s0,0.079,0.001,0.118c0.021,18.323,4.877,35.531,13.359,50.422c0.206,0.468,0.463,0.908,0.762,1.315
	c17.823,30.236,50.724,50.565,88.288,50.569c0.005,0,0.01,0,0.015,0s0.01,0,0.015,0c37.565-0.004,70.469-20.339,88.292-50.575
	c0.296-0.403,0.55-0.84,0.755-1.304c8.504-14.923,13.363-32.177,13.363-50.546S404.115,270.928,395.612,256.005z M375.97,251.838
	h-34.118c-1.296-5.373-2.791-10.439-4.476-15.129c-2.211-6.155-4.566-11.2-6.988-15.318
	C348.638,226.505,364.521,237.345,375.97,251.838z M279.365,299.55c0.329-12.452,1.522-23.757,3.295-33.712h47.781
	c1.772,9.955,2.966,21.26,3.295,33.712H279.365z M333.736,313.55c-0.329,12.452-1.522,23.757-3.295,33.713H282.66
	c-1.772-9.956-2.966-21.261-3.295-33.713H333.736z M306.55,218.127c6.646,0,15.088,12.3,20.808,33.711h-41.614
	C291.463,230.427,299.905,218.127,306.55,218.127z M282.714,221.39c-2.422,4.119-4.777,9.164-6.988,15.319
	c-1.685,4.69-3.181,9.756-4.476,15.129h-34.119C248.579,237.345,264.464,226.505,282.714,221.39z M228.068,265.838h40.37
	c-1.732,10.568-2.779,21.948-3.077,33.712h-46.961C219.351,287.476,222.738,276.072,228.068,265.838z M228.068,347.263
	c-5.33-10.233-8.718-21.639-9.668-33.713h46.961c0.298,11.764,1.345,23.145,3.076,33.713H228.068z M237.131,361.263h34.119
	c1.295,5.373,2.791,10.439,4.476,15.129c2.211,6.156,4.566,11.201,6.988,15.319C264.464,386.597,248.579,375.757,237.131,361.263z
	 M306.55,394.975c-6.646,0-15.087-12.296-20.807-33.712h41.614C321.638,382.679,313.195,394.975,306.55,394.975z M330.388,391.711
	c2.422-4.119,4.777-9.163,6.988-15.319c1.685-4.689,3.18-9.756,4.476-15.129h34.118
	C364.521,375.757,348.638,386.597,330.388,391.711z M385.032,347.263h-40.369c1.732-10.568,2.779-21.949,3.077-33.713h46.96
	C393.75,325.624,390.362,337.03,385.032,347.263z M347.74,299.55c-0.298-11.764-1.345-23.144-3.077-33.712h40.369
	c5.33,10.233,8.718,21.638,9.668,33.712H347.74z M142.78,180.439l14.494-14.495l54.921,54.922c2.734,2.732,7.167,2.732,9.899,0
	c2.734-2.734,2.734-7.166,0-9.9l-54.921-54.921l14.494-14.495l58.448,58.447c2.732,2.732,7.165,2.733,9.899-0.001
	c2.733-2.733,2.733-7.165-0.001-9.899l-63.252-63.251c-0.7-0.743-1.575-1.345-2.594-1.734l-39.163-14.967
	c-0.028-0.011-0.058-0.022-0.086-0.033L105.2,94.932c-1.407-0.538-5.588-0.507-7.449,1.589c-1.834,2.065-2.574,4.87-1.589,7.449
	l30.131,78.842c0.151,0.419,0.343,0.826,0.576,1.216c0.332,0.558,0.734,1.057,1.19,1.489l62.919,62.919
	c1.366,1.366,3.158,2.05,4.949,2.05s3.583-0.684,4.95-2.05c2.733-2.734,2.733-7.166,0-9.9L142.78,180.439z M121.401,130.788
	l-6.569-17.188l16.475,6.296C128.328,123.819,125.02,127.457,121.401,130.788z M126.72,144.71
	c6.932-5.693,13.005-12.271,18.128-19.639l24.237,9.263l-16.66,16.66c-0.034,0.032-0.067,0.065-0.102,0.099
	c-0.033,0.034-0.066,0.067-0.099,0.102l-16.659,16.66L126.72,144.71z M275.451,107.266c3.866,0,7,3.134,7,7v63.991
	c0,3.866-3.134,7-7,7s-7-3.134-7-7v-63.991C268.451,110.4,271.585,107.266,275.451,107.266z M185.257,275.451c0,3.866-3.134,7-7,7
	H59.466c-3.866,0-7-3.134-7-7V59.466c0-3.866,3.134-7,7-7h161.186c3.866,0,7,3.134,7,7s-3.134,7-7,7H66.466v201.985h111.791
	C182.123,268.451,185.257,271.585,185.257,275.451z"/>
<g>
</g>
<g>
</g>
<g>
</g>
<g>
</g>
<g>
</g>
<g>
</g>
<g>
</g>
<g>
</g>
<g>
</g>
<g>
</g>
<g>
</g>
<g>
</g>
<g>
</g>
<g>
</g>
<g>
</g>
</svg>
