<?xml version="1.0" encoding="iso-8859-1"?>
<!-- Generator: Adobe Illustrator 19.0.0, SVG Export Plug-In . SVG Version: 6.00 Build 0)  -->
<svg version="1.1" id="Capa_1" xmlns="http://www.w3.org/2000/svg" xmlns:xlink="http://www.w3.org/1999/xlink" x="0px" y="0px"
	 viewBox="0 0 409.6 409.6" style="enable-background:new 0 0 409.6 409.6;" xml:space="preserve">
<path style="fill:#27A2DB;" d="M120.047,182.614L88.956,148.36c-1.495-1.646-3.615-2.585-5.839-2.585H38.977
	c-2.224,0-4.344,0.939-5.839,2.585L2.047,182.614c-1.317,1.451-2.047,3.34-2.047,5.3v147.328c0,4.355,3.53,7.885,7.885,7.885
	h106.324c4.355,0,7.885-3.53,7.885-7.885V187.914C122.094,185.955,121.365,184.065,120.047,182.614z"/>
<circle style="fill:#FFFFFF;" cx="61.046" cy="177.699" r="8.556"/>
<g>
	<rect x="57.692" y="66.472" style="fill:#E1E6E9;" width="6.712" height="111.227"/>
	<path style="fill:#E1E6E9;" d="M52.966,148.267c-3.671,0-7.839-0.905-11.883-2.592c-6.745-2.812-11.883-7.19-13.738-11.713
		c-0.937-2.284-0.996-4.536-0.164-6.515c1.35-3.241,4.746-5.191,9.55-5.486c3.952-0.259,8.639,0.659,13.181,2.553
		c4.529,1.888,8.469,4.578,11.09,7.571c3.172,3.628,4.175,7.413,2.825,10.654l0,0c-1.357,3.245-4.752,5.195-9.563,5.489
		C53.838,148.253,53.405,148.267,52.966,148.267z M38.028,128.632c-0.302,0-0.596,0.01-0.878,0.026
		c-2.261,0.141-3.546,0.809-3.775,1.373c-0.17,0.403,0.039,1.036,0.177,1.38c0.95,2.314,4.444,5.706,10.114,8.069
		c3.553,1.485,7.289,2.258,10.186,2.048c2.261-0.138,3.546-0.809,3.775-1.373l0,0c0.236-0.564-0.19-1.947-1.678-3.651
		c-1.927-2.206-5.067-4.316-8.619-5.798C44.124,129.37,40.794,128.632,38.028,128.632z"/>
	<path style="fill:#E1E6E9;" d="M69.136,147.785c-0.439,0-0.872-0.013-1.298-0.039c-4.811-0.295-8.206-2.245-9.563-5.489
		c-2.51-6.03,3.467-13.87,13.915-18.228c4.536-1.891,9.262-2.782,13.181-2.553c4.805,0.298,8.2,2.248,9.557,5.493
		c0.826,1.973,0.767,4.228-0.17,6.509c-1.855,4.519-6.987,8.901-13.738,11.716C76.975,146.88,72.807,147.785,69.136,147.785z
		 M84.074,128.147c-2.766,0-6.096,0.741-9.301,2.075c-7.407,3.09-10.927,7.944-10.297,9.452c0.229,0.564,1.514,1.232,3.775,1.373
		c2.976,0.164,6.633-0.564,10.186-2.048c5.67-2.366,9.163-5.758,10.114-8.072c0.138-0.341,0.347-0.973,0.184-1.37
		c-0.236-0.57-1.521-1.242-3.782-1.38C84.671,128.157,84.376,128.147,84.074,128.147z"/>
</g>
<path style="fill:#FCD462;" d="M221.079,185.854l-24.783-39.062c-1.192-1.878-3.12-3.165-5.312-3.545l-43.491-7.54
	c-2.191-0.38-4.441,0.183-6.194,1.55l-36.486,28.439c-1.546,1.205-2.587,2.942-2.922,4.872L76.723,315.73
	c-0.744,4.291,2.132,8.372,6.422,9.116l104.761,18.163c4.291,0.744,8.372-2.132,9.116-6.422l25.168-145.162
	C222.525,189.495,222.13,187.509,221.079,185.854z"/>
<ellipse style="fill:#FFFFFF;" cx="163.81" cy="170.959" rx="8.556" ry="8.556"/>
<g>
	
		<rect x="117.689" y="112.781" transform="matrix(-0.1708 0.9853 -0.9853 -0.1708 317.337 -34.7781)" style="fill:#E1E6E9;" width="111.227" height="6.712"/>
	<path style="fill:#E1E6E9;" d="M160.852,140.552c-3.617-0.627-7.57-2.23-11.266-4.584c-6.165-3.923-10.48-9.115-11.536-13.888
		c-0.533-2.411-0.207-4.639,0.952-6.447c1.884-2.963,5.563-4.304,10.347-3.774c3.939,0.42,8.399,2.125,12.551,4.767
		c4.14,2.634,7.562,5.958,9.634,9.354c2.506,4.117,2.847,8.018,0.963,10.98l0,0c-1.891,2.965-5.57,4.306-10.36,3.775
		C161.713,140.688,161.285,140.627,160.852,140.552z M149.488,118.654c-0.297-0.052-0.589-0.092-0.87-0.124
		c-2.252-0.247-3.632,0.192-3.955,0.708c-0.237,0.368-0.138,1.027-0.061,1.39c0.541,2.442,3.404,6.381,8.587,9.678
		c3.247,2.07,6.796,3.47,9.686,3.758c2.252,0.251,3.632-0.192,3.955-0.708l0,0c0.329-0.515,0.145-1.951-1.03-3.884
		c-1.522-2.502-4.255-5.118-7.502-7.185C155.368,120.422,152.213,119.127,149.488,118.654z"/>
	<path style="fill:#E1E6E9;" d="M176.867,142.839c-0.433-0.075-0.857-0.162-1.272-0.26c-4.69-1.112-7.702-3.614-8.485-7.042
		c-1.443-6.37,5.786-13.073,16.825-15.583c4.792-1.088,9.601-1.159,13.424-0.264c4.683,1.115,7.695,3.616,8.478,7.045
		c0.477,2.085,0.033,4.297-1.28,6.384c-2.6,4.136-8.405,7.577-15.538,9.197C184.745,143.287,180.483,143.466,176.867,142.839z
		 M194.94,126.042c-2.725-0.473-6.133-0.312-9.519,0.455c-7.826,1.78-12.123,5.961-11.761,7.554c0.13,0.595,1.281,1.473,3.485,1.998
		c2.904,0.67,6.632,0.578,10.386-0.278c5.991-1.363,10.012-4.108,11.344-6.226c0.194-0.312,0.509-0.9,0.415-1.318
		c-0.135-0.602-1.286-1.484-3.491-2.006C195.526,126.154,195.237,126.094,194.94,126.042z"/>
</g>
<path style="fill:#44C4A1;" d="M306.046,180.292l-30.167-35.071c-1.451-1.686-3.545-2.681-5.768-2.74l-44.124-1.177
	c-2.223-0.059-4.368,0.823-5.905,2.429l-31.994,33.413c-1.356,1.415-2.135,3.285-2.187,5.243l-3.928,147.276
	c-0.116,4.353,3.319,7.977,7.672,8.093l106.286,2.835c4.353,0.116,7.977-3.319,8.093-7.672l3.928-147.276
	C308.003,183.686,307.324,181.778,306.046,180.292z"/>
<ellipse style="fill:#FFFFFF;" cx="247.198" cy="173.785" rx="8.555" ry="8.555"/>
<g>
	
		<rect x="193.066" y="114.88" transform="matrix(-0.0267 0.9996 -0.9996 -0.0267 373.5027 -127.2019)" style="fill:#E1E6E9;" width="111.226" height="6.712"/>
	<path style="fill:#E1E6E9;" d="M239.904,144.168c-3.669-0.098-7.812-1.113-11.81-2.908c-6.667-2.991-11.688-7.505-13.421-12.075
		c-0.876-2.308-0.875-4.561,0.01-6.517c1.436-3.204,4.882-5.063,9.693-5.23c3.958-0.153,8.618,0.889,13.109,2.904
		c4.477,2.008,8.343,4.803,10.885,7.864c3.075,3.711,3.976,7.522,2.54,10.726l0,0c-1.443,3.207-4.889,5.066-9.706,5.233
		C240.776,144.178,240.343,144.18,239.904,144.168z M225.495,124.143c-0.301-0.008-0.597-0.006-0.879,0.003
		c-2.264,0.081-3.566,0.715-3.811,1.272c-0.181,0.398,0.012,1.036,0.14,1.384c0.888,2.338,4.29,5.822,9.895,8.335
		c3.512,1.579,7.226,2.452,10.128,2.319c2.264-0.077,3.566-0.715,3.811-1.272l0,0c0.251-0.557-0.138-1.951-1.58-3.694
		c-1.868-2.256-4.95-4.45-8.462-6.025C231.569,125.042,228.26,124.217,225.495,124.143z"/>
	<path style="fill:#E1E6E9;" d="M256.081,144.118c-0.439-0.012-0.871-0.036-1.296-0.074c-4.801-0.423-8.144-2.463-9.413-5.742
		c-2.349-6.095,3.836-13.772,14.396-17.851c4.585-1.769,9.333-2.534,13.245-2.201c4.795,0.426,8.137,2.466,9.407,5.746
		c0.773,1.994,0.654,4.247-0.344,6.502c-1.975,4.468-7.222,8.712-14.046,11.346C263.942,143.423,259.751,144.216,256.081,144.118z
		 M271.538,124.886c-2.765-0.074-6.113,0.578-9.353,1.826c-7.486,2.892-11.134,7.65-10.546,9.174
		c0.214,0.57,1.481,1.272,3.737,1.473c2.97,0.243,6.646-0.387,10.237-1.776c5.731-2.214,9.314-5.512,10.325-7.799
		c0.147-0.337,0.373-0.964,0.22-1.365c-0.221-0.576-1.487-1.282-3.744-1.48C272.134,124.911,271.839,124.894,271.538,124.886z"/>
</g>
<path style="fill:#E56353;" d="M408.373,191.559l-24.783-39.062c-1.192-1.878-3.12-3.165-5.312-3.545l-43.491-7.54
	c-2.191-0.38-4.441,0.183-6.194,1.55l-36.486,28.439c-1.546,1.205-2.587,2.942-2.922,4.872l-25.168,145.162
	c-0.744,4.291,2.132,8.372,6.422,9.116l104.761,18.163c4.291,0.744,8.372-2.132,9.116-6.422l25.168-145.162
	C409.819,195.2,409.423,193.214,408.373,191.559z"/>
<ellipse style="fill:#FFFFFF;" cx="351.078" cy="176.623" rx="8.556" ry="8.556"/>
<g>
	
		<rect x="304.953" y="118.517" transform="matrix(-0.1708 0.9853 -0.9853 -0.1708 542.2437 -212.5743)" style="fill:#E1E6E9;" width="111.227" height="6.712"/>
	<path style="fill:#E1E6E9;" d="M348.145,146.257c-3.617-0.627-7.57-2.23-11.266-4.584c-6.165-3.923-10.48-9.115-11.536-13.888
		c-0.533-2.411-0.207-4.639,0.952-6.447c1.884-2.963,5.563-4.304,10.347-3.774c3.939,0.42,8.399,2.125,12.551,4.767
		c4.14,2.634,7.562,5.958,9.634,9.354c2.506,4.117,2.847,8.018,0.963,10.98l0,0c-1.891,2.965-5.57,4.306-10.36,3.775
		C349.006,146.393,348.578,146.332,348.145,146.257z M336.781,124.359c-0.297-0.051-0.589-0.092-0.87-0.124
		c-2.252-0.247-3.632,0.192-3.955,0.708c-0.237,0.368-0.138,1.027-0.061,1.39c0.541,2.442,3.404,6.381,8.587,9.678
		c3.247,2.07,6.796,3.47,9.686,3.758c2.252,0.251,3.632-0.192,3.955-0.708l0,0c0.329-0.515,0.145-1.951-1.03-3.884
		c-1.522-2.502-4.255-5.118-7.502-7.185C342.661,126.127,339.506,124.832,336.781,124.359z"/>
	<path style="fill:#E1E6E9;" d="M364.16,148.545c-0.433-0.075-0.857-0.162-1.272-0.26c-4.69-1.113-7.702-3.614-8.485-7.042
		c-1.443-6.37,5.786-13.073,16.825-15.583c4.792-1.088,9.601-1.159,13.424-0.264c4.683,1.115,7.695,3.616,8.478,7.045
		c0.477,2.085,0.033,4.297-1.28,6.384c-2.6,4.136-8.405,7.577-15.538,9.197C372.039,148.993,367.777,149.172,364.16,148.545z
		 M382.233,131.748c-2.725-0.473-6.133-0.312-9.519,0.455c-7.826,1.78-12.123,5.961-11.761,7.554
		c0.13,0.595,1.281,1.473,3.485,1.998c2.904,0.67,6.632,0.578,10.386-0.278c5.991-1.363,10.012-4.108,11.344-6.226
		c0.194-0.312,0.509-0.9,0.415-1.318c-0.135-0.602-1.286-1.484-3.491-2.006C382.819,131.859,382.53,131.799,382.233,131.748z"/>
</g>
<path style="fill:#FFFFFF;" d="M41.503,235.67c-3.253,0-5.921,0.663-8.002,1.989c-2.089,1.326-3.13,3.33-3.13,6.021
	c0,2.683,1.041,4.734,3.13,6.152c2.081,1.426,6.514,2.953,13.306,4.595c6.784,1.642,11.903,3.947,15.349,6.915
	c3.438,2.968,5.157,7.347,5.157,13.121c0,5.782-2.174,10.469-6.537,14.069c-4.356,3.6-10.068,5.396-17.145,5.396
	c-10.354,0-19.543-3.562-27.561-10.7l7.008-8.434c6.692,5.813,13.638,8.719,20.838,8.719c3.6,0,6.46-0.779,8.573-2.321
	c2.12-1.55,3.176-3.6,3.176-6.16s-0.994-4.548-2.983-5.967c-1.989-1.426-5.42-2.714-10.276-3.885
	c-4.865-1.172-8.565-2.243-11.086-3.222c-2.529-0.979-4.772-2.259-6.73-3.839c-3.916-2.968-5.867-7.509-5.867-13.638
	c0-6.129,2.22-10.847,6.676-14.162c4.448-3.315,9.96-4.972,16.529-4.972c4.232,0,8.434,0.694,12.597,2.082
	c4.171,1.388,7.771,3.346,10.801,5.874l-5.967,8.434c-1.958-1.773-4.61-3.222-7.956-4.363
	C48.056,236.241,44.757,235.67,41.503,235.67z"/>
<path style="fill:#DC8744;" d="M120.943,260.884l-7.287,13.71l-11.227-0.832l32.066-60.261l11.227,0.832l22.838,64.328
	l-11.235-0.832l-5.188-14.634L120.943,260.884z M148.578,253.166l-9.413-26.506l-13.223,24.829L148.578,253.166z"/>
<g>
	<path style="fill:#FFFFFF;" d="M215.142,281.514l1.247-62.453l10.543,0.211l-1.047,52.448l28.503,0.569l-0.2,10.005
		L215.142,281.514z"/>
	<path style="fill:#FFFFFF;" d="M361.579,224.459l-1.134,9.855l-33.112-3.809l-1.889,16.423l29.738,3.421l-1.072,9.32l-29.738-3.421
		l-1.91,16.603l34.182,3.932l-1.134,9.855l-44.658-5.138l7.139-62.056L361.579,224.459z"/>
</g>
<g>
</g>
<g>
</g>
<g>
</g>
<g>
</g>
<g>
</g>
<g>
</g>
<g>
</g>
<g>
</g>
<g>
</g>
<g>
</g>
<g>
</g>
<g>
</g>
<g>
</g>
<g>
</g>
<g>
</g>
</svg>
