<?xml version="1.0" encoding="iso-8859-1"?>
<!-- Generator: Adobe Illustrator 19.0.0, SVG Export Plug-In . SVG Version: 6.00 Build 0)  -->
<svg version="1.1" id="Capa_1" xmlns="http://www.w3.org/2000/svg" xmlns:xlink="http://www.w3.org/1999/xlink" x="0px" y="0px"
	 viewBox="0 0 511.999 511.999" style="enable-background:new 0 0 511.999 511.999;" xml:space="preserve">
<path style="fill:#3A484A;" d="M428.625,442.885l-16.659,21.011v20.386c0,9.201,7.458,16.659,16.659,16.659
	c9.201,0,16.659-7.458,16.659-16.659v-20.386L428.625,442.885z"/>
<polygon style="fill:#FFE380;" points="428.625,392.57 389.849,422.649 411.966,463.896 445.285,463.896 467.401,422.649 "/>
<path style="fill:#E8B921;" d="M498.177,215.671V80.604c0-16.997-13.779-30.776-30.776-30.776l-24.516,61.86v96.76l24.516,16.188
	c0,13.657,11.071,24.727,24.727,24.727c10.975,0,19.87-8.897,19.87-19.87C512,221.86,505.812,215.671,498.177,215.671z"/>
<path style="fill:#EFEDEE;" d="M267.611,78.514l-33.175-67.455H23.959C10.727,11.057,0,21.785,0,35.017v441.965
	c0,13.233,10.727,23.959,23.959,23.959h287.149c13.233,0,23.959-10.727,23.959-23.959V111.689L267.611,78.514z"/>
<polygon style="fill:#D4D2D3;" points="234.436,11.057 234.436,111.689 335.067,111.689 "/>
<g>
	<path style="fill:#3A484A;" d="M46.51,84.372c-4.267,0-7.726-3.459-7.726-7.726V63.849c0-4.267,3.459-7.726,7.726-7.726
		s7.726,3.459,7.726,7.726v12.797C54.236,80.913,50.777,84.372,46.51,84.372z"/>
	<path style="fill:#3A484A;" d="M187.927,84.372c-4.267,0-7.726-3.459-7.726-7.726V63.849c0-4.267,3.459-7.726,7.726-7.726
		c4.267,0,7.726,3.459,7.726,7.726v12.797C195.653,80.913,192.194,84.372,187.927,84.372z"/>
	<path style="fill:#3A484A;" d="M117.218,91.203c-9.032,0-17.513-3.778-23.27-10.363c-2.808-3.213-2.481-8.094,0.732-10.902
		c3.213-2.808,8.093-2.481,10.902,0.732c2.822,3.229,7.062,5.08,11.635,5.08c4.572,0,8.812-1.851,11.635-5.08
		c2.807-3.213,7.689-3.541,10.902-0.732s3.541,7.689,0.731,10.902C134.73,87.427,126.25,91.203,117.218,91.203z"/>
	<path style="fill:#3A484A;" d="M284.751,174.338H50.315c-4.267,0-7.726-3.459-7.726-7.726c0-4.267,3.459-7.726,7.726-7.726h234.436
		c4.267,0,7.726,3.459,7.726,7.726C292.478,170.879,289.018,174.338,284.751,174.338z"/>
	<path style="fill:#3A484A;" d="M284.751,227.418H50.315c-4.267,0-7.726-3.459-7.726-7.726s3.459-7.726,7.726-7.726h234.436
		c4.267,0,7.726,3.459,7.726,7.726S289.018,227.418,284.751,227.418z"/>
	<path style="fill:#3A484A;" d="M284.751,280.498H50.315c-4.267,0-7.726-3.459-7.726-7.726c0-4.267,3.459-7.726,7.726-7.726h234.436
		c4.267,0,7.726,3.459,7.726,7.726C292.478,277.039,289.018,280.498,284.751,280.498z"/>
	<path style="fill:#3A484A;" d="M284.751,333.577H50.315c-4.267,0-7.726-3.459-7.726-7.726s3.459-7.726,7.726-7.726h234.436
		c4.267,0,7.726,3.459,7.726,7.726S289.018,333.577,284.751,333.577z"/>
	<path style="fill:#3A484A;" d="M284.751,386.657H50.315c-4.267,0-7.726-3.459-7.726-7.726s3.459-7.726,7.726-7.726h234.436
		c4.267,0,7.726,3.459,7.726,7.726S289.018,386.657,284.751,386.657z"/>
	<path style="fill:#3A484A;" d="M230.75,461.117H104.317c-4.267,0-7.726-3.459-7.726-7.726s3.459-7.726,7.726-7.726H230.75
		c4.267,0,7.726,3.459,7.726,7.726S235.017,461.117,230.75,461.117z"/>
	<path style="fill:#3A484A;" d="M428.62,11.057c-21.409,0-38.771,17.362-38.771,38.771v88.035l38.776,19.164l38.776-19.164V49.828
		C467.401,28.419,450.04,11.057,428.62,11.057z"/>
	<polygon style="fill:#3A484A;" points="428.625,157.028 389.849,176.191 389.849,422.648 467.401,422.648 467.401,176.191 	"/>
</g>
<rect x="389.851" y="137.858" style="fill:#FFE380;" width="77.552" height="38.323"/>
<g>
</g>
<g>
</g>
<g>
</g>
<g>
</g>
<g>
</g>
<g>
</g>
<g>
</g>
<g>
</g>
<g>
</g>
<g>
</g>
<g>
</g>
<g>
</g>
<g>
</g>
<g>
</g>
<g>
</g>
</svg>
