<svg id="Filled_stroke_cutting_ex_Revise" height="512" viewBox="0 0 512 512" width="512" xmlns="http://www.w3.org/2000/svg" data-name="Filled stroke cutting ex Revise"><path d="m40 24h432v464h-432z" fill="#4d4d4d"/><path d="m184 24h144v464h-144z" fill="#808080"/><g><g><path d="m216 72h80v40h-80z" fill="#fac850"/><path d="m296 120h-80a8 8 0 0 1 -8-8v-40a8 8 0 0 1 8-8h80a8 8 0 0 1 8 8v40a8 8 0 0 1 -8 8zm-72-16h64v-24h-64z"/><path d="m208 144h40v16h-40z"/><path d="m208 176h40v16h-40z"/><path d="m208 208h40v16h-40z"/><path d="m264 144h40v16h-40z"/><path d="m264 176h40v16h-40z"/><path d="m264 208h40v16h-40z"/><path d="m208 368h96v16h-96z"/><path d="m208 400h96v16h-96z"/><path d="m208 432h96v16h-96z"/><path d="m216 264h22a10 10 0 0 1 10 10v52a10 10 0 0 1 -10 10h-22a0 0 0 0 1 0 0v-72a0 0 0 0 1 0 0z" fill="#fac850"/><path d="m238 344h-22a8 8 0 0 1 -8-8v-72a8 8 0 0 1 8-8h22a18.021 18.021 0 0 1 18 18v52a18.021 18.021 0 0 1 -18 18zm-14-16h14a2 2 0 0 0 2-2v-52a2 2 0 0 0 -2-2h-14z"/></g><g><path d="m360 72h80v40h-80z" fill="#fac850"/><path d="m440 120h-80a8 8 0 0 1 -8-8v-40a8 8 0 0 1 8-8h80a8 8 0 0 1 8 8v40a8 8 0 0 1 -8 8zm-72-16h64v-24h-64z"/><path d="m352 144h40v16h-40z"/><path d="m352 176h40v16h-40z"/><path d="m352 208h40v16h-40z"/><path d="m408 144h40v16h-40z"/><path d="m408 176h40v16h-40z"/><path d="m408 208h40v16h-40z"/><path d="m352 368h96v16h-96z"/><path d="m352 400h96v16h-96z"/><path d="m352 432h96v16h-96z"/><path d="m360 264h22a10 10 0 0 1 10 10v52a10 10 0 0 1 -10 10h-22a0 0 0 0 1 0 0v-72a0 0 0 0 1 0 0z" fill="#fac850"/><path d="m382 344h-22a8 8 0 0 1 -8-8v-72a8 8 0 0 1 8-8h22a18.021 18.021 0 0 1 18 18v52a18.021 18.021 0 0 1 -18 18zm-14-16h14a2 2 0 0 0 2-2v-52a2 2 0 0 0 -2-2h-14z"/></g><g><path d="m480 384v-360a8 8 0 0 0 -8-8h-432a8 8 0 0 0 -8 8v136h16v-128h128v448h-128v-304h-16v312a8 8 0 0 0 8 8h432a8 8 0 0 0 8-8v-88h-16v80h-128v-448h128v352zm-288-352h128v448h-128z"/><path d="m72 72h80v40h-80z" fill="#fac850"/><path d="m152 120h-80a8 8 0 0 1 -8-8v-40a8 8 0 0 1 8-8h80a8 8 0 0 1 8 8v40a8 8 0 0 1 -8 8zm-72-16h64v-24h-64z"/><path d="m64 144h40v16h-40z"/><path d="m64 176h40v16h-40z"/><path d="m64 208h40v16h-40z"/><path d="m120 144h40v16h-40z"/><path d="m120 176h40v16h-40z"/><path d="m120 208h40v16h-40z"/><path d="m64 368h96v16h-96z"/><path d="m64 400h96v16h-96z"/><path d="m64 432h96v16h-96z"/><path d="m72 264h22a10 10 0 0 1 10 10v52a10 10 0 0 1 -10 10h-22a0 0 0 0 1 0 0v-72a0 0 0 0 1 0 0z" fill="#fac850"/><path d="m94 344h-22a8 8 0 0 1 -8-8v-72a8 8 0 0 1 8-8h22a18.021 18.021 0 0 1 18 18v52a18.021 18.021 0 0 1 -18 18zm-14-16h14a2 2 0 0 0 2-2v-52a2 2 0 0 0 -2-2h-14z"/></g></g></svg>